HIERARCHY
ROOT hip
{
	OFFSET 0.000000 0.000000 0.000000
	CHANNELS 6  Xposition Yposition Zposition Xrotation Zrotation Yrotation
	JOINT abdomen
	{
		OFFSET 0.000000 3.402643 0.000000
			CHANNELS 3 Xrotation Zrotation Yrotation
		JOINT chest
		{
			OFFSET 0.000000 8.438565 -0.680529
				CHANNELS 3 Xrotation Zrotation Yrotation
			JOINT neck
			{
				OFFSET 0.000000 10.207942 -0.272212
					CHANNELS 3 Xrotation Zrotation Yrotation
				JOINT head
				{
					OFFSET 0.000000 3.130431 0.000000
						CHANNELS 3 Xrotation Zrotation Yrotation
					End Site
					{
						OFFSET 0.000000 3.130435 0.000000
					}
				}
			}
			JOINT lCollar
			{
				OFFSET 3.470700 6.669187 -0.816635
					CHANNELS 3 Yrotation Zrotation Xrotation
				JOINT lShldr
				{
					OFFSET 3.198488 0.000000 0.000000
						CHANNELS 3 Zrotation Yrotation Xrotation
					JOINT lForeArm
					{
						OFFSET 10.139888 0.000000 0.000000
							CHANNELS 3 Yrotation Zrotation Xrotation
						JOINT lHand
						{
							OFFSET 8.370511 0.000000 0.000000
								CHANNELS 3 Zrotation Yrotation Xrotation
							End Site
							{
								OFFSET 4.083176 0.000000 0.000000
							}
						}
					}
				}
			}
			JOINT rCollar
			{
				OFFSET -3.470700 6.669187 -0.816635
					CHANNELS 3 Yrotation Zrotation Xrotation
				JOINT rShldr
				{
					OFFSET -3.198488 0.000000 0.000000
						CHANNELS 3 Zrotation Yrotation Xrotation
					JOINT rForeArm
					{
						OFFSET -10.139888 0.000000 0.000000
							CHANNELS 3 Yrotation Zrotation Xrotation
						JOINT rHand
						{
							OFFSET -8.370511 0.000000 0.000000
								CHANNELS 3 Zrotation Yrotation Xrotation
							End Site
							{
								OFFSET -4.083176 0.000000 0.000000
							}
						}
					}
				}
			}
		}
	}
	JOINT lThigh 
	{
		OFFSET 5.308129 -1.633274 1.361059
			CHANNELS 3 Xrotation Zrotation Yrotation
		JOINT lShin
		{
			OFFSET -2.041588 -20.007561 0.000000
				CHANNELS 3 Xrotation Zrotation Yrotation
			JOINT lFoot
			{
				OFFSET 0.000000 -19.190928 -1.224953
					CHANNELS 3 Xrotation Yrotation Zrotation
				End Site
				{
					OFFSET 0.000000 -2.449906 4.627600
				}
			}
		}
	}
	JOINT rThigh
	{
		OFFSET -5.308129 -1.633274 1.361059
			CHANNELS 3 Xrotation Zrotation Yrotation
		JOINT rShin
		{
			OFFSET 2.041588 -20.007561 0.000000
				CHANNELS 3 Xrotation Zrotation Yrotation
			JOINT rFoot
			{
				OFFSET 0.000000 -19.190928 -1.224953
					CHANNELS 3 Xrotation Yrotation Zrotation
				End Site
				{
					OFFSET 0.000000 -2.449906 4.627600
				}
			}
		}
	}
}
MOTION
Frames: 13
Frame Time: 0.032000
-427.843414 66.435799 3686.200439 21.96 -2.77 1.92 1.63 -0.35 12.32 0.70 -0.15 5.28 -3.40 -2.03 -4.36 8.62 -0.94 -4.40 -0.59 -0.08 -0.01 -65.01 43.17 16.54 -112.04 2.24 27.13 13.05 15.61 3.57 4.52 -6.55 -0.01 77.60 3.25 23.32 106.36 -2.68 31.54 -32.97 7.52 -5.08 -54.61 2.40 0.22 27.41 -1.07 -2.53 23.67 -1.34 -11.87 -12.18 -3.31 -7.87 90.22 -2.79 3.28 -0.00 -0.00 0.00 
-427.279205 69.656265 3703.065186 21.81 -1.88 1.82 1.27 -1.82 7.46 0.54 -0.77 3.19 -3.05 -1.16 -2.18 6.94 0.62 -2.12 1.36 -3.66 -0.12 -69.43 30.04 13.93 -110.57 2.49 29.59 13.36 15.64 3.61 4.93 -5.66 -0.04 78.84 -5.65 24.52 96.75 -2.62 29.80 -44.48 0.79 -0.81 -51.18 3.52 4.64 37.85 -0.93 -2.79 9.82 -6.74 -11.05 -21.54 -7.32 -8.46 108.33 -4.20 3.33 -0.00 -0.00 0.00 
-427.428162 67.136742 3700.509277 21.98 2.22 1.73 3.47 -4.58 0.27 1.49 -1.95 0.11 -5.95 0.06 -0.02 5.18 2.81 0.00 1.19 -5.60 -0.13 -73.97 8.87 11.83 -108.59 2.68 32.78 13.55 14.76 3.41 5.27 -5.13 -0.05 80.29 -14.39 13.92 86.98 -2.94 34.27 -36.18 10.43 -7.70 -46.12 -1.21 6.22 47.65 -0.75 -3.09 -4.02 -3.09 -12.31 -39.00 -13.14 -5.16 122.15 -4.79 2.40 -0.00 -0.00 0.00 
-427.175598 69.854630 3707.281250 23.03 1.54 1.81 3.82 -2.29 -6.35 1.63 -0.98 -2.72 -5.64 -0.26 2.23 5.08 4.01 2.09 0.17 -4.12 -0.17 -80.48 -7.71 9.10 -108.54 3.41 43.10 13.81 12.74 3.00 5.09 -5.29 -0.06 75.38 -26.08 11.84 85.35 -3.02 34.40 -34.34 9.32 -6.60 -37.52 -1.66 2.90 47.80 -0.43 -3.13 -6.03 -3.09 -12.47 -58.40 -12.39 -4.30 123.00 -4.76 2.42 -0.00 -0.00 0.00 
-425.973938 82.074768 3723.635742 23.85 -0.51 2.03 3.74 1.66 -11.41 1.60 0.71 -4.89 -5.57 0.18 5.71 6.39 0.61 5.78 1.77 -2.78 -0.09 -84.99 -15.08 7.43 -112.65 3.20 40.18 14.44 14.21 3.57 4.25 -6.66 -0.06 65.26 -34.14 19.40 87.25 -2.81 33.03 -33.61 10.40 -6.94 -26.78 1.30 0.57 42.32 -0.38 -3.06 3.03 -5.69 -11.85 -68.79 -9.72 -4.92 111.43 -4.26 3.32 -0.00 -0.00 0.00 
-425.330750 88.582306 3724.043701 25.30 -2.09 2.30 3.70 4.51 -14.86 1.58 1.93 -6.37 -7.15 2.42 7.30 7.31 -2.24 7.69 2.68 -1.41 -0.11 -86.81 -20.29 9.48 -117.26 3.15 39.34 13.44 14.95 3.50 4.86 -9.55 -0.05 57.78 -42.75 25.41 88.27 -2.01 21.85 -31.61 12.63 -7.77 -19.93 4.17 -0.36 37.25 -0.84 -2.50 9.12 -6.30 -11.00 -76.77 -5.93 -2.31 103.46 -3.71 3.34 -0.00 -0.00 0.00 
-426.283325 81.182861 3719.270996 26.68 -4.37 2.59 3.69 6.83 -15.51 1.59 2.92 -6.64 -8.04 4.43 7.63 8.04 -5.46 8.36 3.21 -0.33 -0.16 -86.74 -22.05 10.89 -121.29 3.32 41.45 15.70 18.19 4.99 6.05 -12.39 0.00 53.33 -51.45 29.00 89.74 -1.58 17.58 -29.88 14.01 -8.03 -13.80 7.79 2.42 33.26 -1.06 -2.46 18.52 -5.72 -10.28 -80.46 -2.01 0.46 89.84 -2.94 3.84 -0.00 -0.00 0.00 
-424.824829 95.242317 3748.039063 27.28 -4.63 2.88 3.03 8.34 -15.29 1.29 3.57 -6.55 -7.35 4.15 8.43 7.92 -8.34 9.23 3.41 -0.66 -0.14 -84.92 -18.01 10.07 -121.97 3.20 41.18 18.56 17.84 5.83 7.85 -13.41 -0.05 54.71 -60.78 25.15 91.92 -2.42 26.77 -37.35 18.49 -13.80 -9.25 7.99 4.63 39.78 -0.60 -2.93 25.38 -3.68 -10.56 -75.43 -1.80 1.30 62.76 -1.14 3.56 -0.00 -0.00 0.00 
-424.683289 96.410294 3746.040527 26.61 -3.09 3.18 3.98 9.04 -14.84 1.70 3.87 -6.36 -8.16 3.97 8.46 7.87 -10.31 9.18 3.68 -1.33 -0.09 -84.42 -14.26 9.01 -118.87 3.45 44.65 13.60 12.92 3.11 7.24 -12.59 -0.14 64.45 -60.06 12.13 92.52 -2.78 31.31 -37.05 20.67 -15.03 -10.63 5.65 3.22 60.14 0.24 -3.39 29.56 -5.90 -9.11 -67.57 -3.72 0.88 41.07 0.15 2.70 -0.00 -0.00 0.00 
1940.300293 -11688.207031 -4899.258301 25.02 -2.49 3.52 3.99 9.49 -12.08 1.70 4.06 -5.17 -6.00 2.83 7.21 7.41 -12.15 7.99 2.37 -1.30 -0.12 -84.99 -7.70 11.07 -113.13 3.62 46.02 13.81 15.09 3.61 5.74 -9.11 -0.07 68.09 -52.15 5.67 93.54 -2.60 30.77 -32.77 16.77 -10.67 -13.05 3.38 4.03 83.43 1.55 -3.93 31.39 -3.44 -10.52 -60.49 -4.56 -1.98 33.70 0.97 2.14 -0.00 -0.00 0.00 
1940.300293 -11690.011719 -4899.258301 23.80 -4.55 3.82 3.17 11.63 -6.64 1.36 4.99 -2.84 -3.92 0.66 5.81 7.15 -13.98 6.32 2.00 -2.25 -0.09 -86.04 0.26 13.48 -104.10 3.37 41.63 12.30 17.56 3.71 4.34 -4.59 -0.10 65.69 -37.51 4.91 94.37 -2.47 28.22 -28.04 10.88 -5.94 -19.74 5.05 7.36 106.71 2.82 -3.76 32.84 -2.71 -10.52 -53.48 -2.76 -8.18 38.53 0.50 2.32 -0.00 -0.00 0.00 
1940.300293 -11691.803711 -4899.258301 23.66 -8.02 4.09 3.31 13.79 -0.27 1.42 5.91 -0.11 -5.92 -0.64 4.88 6.83 -15.37 5.41 1.89 -3.25 -0.07 -86.14 7.95 13.10 -96.23 3.16 39.07 14.10 18.04 4.46 4.05 -1.27 -0.09 65.31 -17.68 6.06 95.63 -2.39 27.71 -27.12 11.94 -6.21 -34.51 9.04 7.49 124.37 3.98 -3.28 37.58 -8.31 -6.30 -48.66 1.49 -9.61 47.14 0.26 2.87 -0.00 -0.00 0.00 
1940.300293 -11692.263672 -4899.258301 23.88 -9.23 4.33 4.22 12.48 5.49 1.80 5.35 2.35 -7.35 0.08 4.12 5.63 -15.90 5.03 0.65 -1.18 -0.16 -85.39 18.05 10.49 -92.69 2.99 37.15 15.12 22.10 5.84 6.07 -1.45 -0.02 70.96 3.31 7.93 98.24 -2.74 31.55 -30.08 14.53 -8.33 -55.89 9.81 4.34 131.23 4.53 -3.17 40.05 -9.18 -5.25 -40.99 4.48 -4.84 50.15 0.10 3.12 -0.00 -0.00 0.00 
